<?xml version="1.0" encoding="utf-8"?>
<!-- Generator: Adobe Illustrator 20.1.0, SVG Export Plug-In . SVG Version: 6.00 Build 0)  -->
<svg version="1.1" id="Layer_1" xmlns="http://www.w3.org/2000/svg" xmlns:xlink="http://www.w3.org/1999/xlink" x="0px" y="0px"
	 viewBox="0 0 402 46.8" style="enable-background:new 0 0 402 46.8;" xml:space="preserve">
<style type="text/css">
	.st0{fill:#FFFFFF;}
	.st1{fill-rule:evenodd;clip-rule:evenodd;fill:#FFFFFF;}
</style>
<g>
	<g>
		<polygon class="st0" points="1,29.7 14.6,29.7 14.6,33.8 10.8,33.8 10.8,43.7 5,43.7 5,33.8 1,33.8 		"/>
		<polygon class="st0" points="21.5,35.3 18.7,43.7 13.2,43.7 18.6,29.7 24.5,29.7 29.9,43.7 24.5,43.7 		"/>
		<polygon class="st0" points="28.7,29.7 42.2,29.7 42.2,33.8 38.4,33.8 38.4,43.7 32.6,43.7 32.6,33.8 28.7,33.8 		"/>
		<polygon class="st0" points="49.2,35.3 46.3,43.7 40.8,43.7 46.2,29.7 52.1,29.7 57.5,43.7 52.1,43.7 		"/>
		<polygon class="st0" points="67.2,29.7 67.2,35.3 73.1,35.3 73.1,29.7 75.7,29.7 75.7,43.7 73.1,43.7 73.1,37.5 67.2,37.5 
			67.2,43.7 64.6,43.7 64.6,29.7 		"/>
		<path class="st0" d="M91.1,36.5c0,4.7-2.8,7.4-6.8,7.4c-4,0-6.5-3-6.5-7.1c0-4.3,2.7-7.4,6.7-7.4C88.6,29.4,91.1,32.6,91.1,36.5
			 M80.6,36.7c0,2.8,1.4,5.2,3.9,5.2c2.5,0,3.9-2.3,3.9-5.3c0-2.6-1.3-5.2-3.9-5.2C81.9,31.4,80.6,33.9,80.6,36.7"/>
		<path class="st0" d="M95.8,29.7v8.2c0,2.7,1.1,4,2.9,4c1.8,0,3-1.2,3-4v-8.2h2.5v8c0,4.3-2.2,6.2-5.6,6.2c-3.3,0-5.4-1.8-5.4-6.2
			v-8.1L95.8,29.7L95.8,29.7z"/>
		<path class="st0" d="M107.1,40.9c0.8,0.4,2.1,0.9,3.4,0.9c1.7,0,2.5-0.8,2.5-1.9c0-1.1-0.7-1.7-2.5-2.4c-2.3-0.8-3.8-2-3.8-4
			c0-2.3,1.9-4,4.9-4c1.5,0,2.6,0.4,3.3,0.7l-0.6,2c-0.5-0.3-1.5-0.7-2.8-0.7c-1.7,0-2.4,0.9-2.4,1.7c0,1.1,0.8,1.6,2.7,2.3
			c2.5,0.9,3.6,2.1,3.6,4.1c0,2.3-1.7,4.2-5.4,4.2c-1.5,0-3-0.4-3.8-0.9L107.1,40.9z"/>
		<rect x="118" y="29.7" class="st0" width="2.5" height="14.1"/>
		<path class="st0" d="M123.5,43.7V29.7h2.9l3.6,6.1c1,1.6,1.8,3.2,2.4,4.7l0,0c-0.2-1.8-0.3-3.7-0.3-5.8v-4.9h2.4v14.1h-2.6
			l-3.7-6.2c-0.9-1.5-1.8-3.3-2.5-4.8h-0.1c0.1,1.8,0.1,3.7,0.1,6v5L123.5,43.7L123.5,43.7z"/>
		<path class="st0" d="M148.8,43c-0.9,0.4-2.6,0.8-4.5,0.8c-2.4,0-4.1-0.6-5.5-1.8c-1.2-1.2-2-3.1-1.9-5.2c0-4.5,3.2-7.3,7.8-7.3
			c1.8,0,3.1,0.4,3.7,0.7l-0.5,2c-0.8-0.4-1.7-0.6-3.2-0.6c-3,0-5.1,1.8-5.1,5c0,3.2,1.9,5.1,4.9,5.1c0.9,0,1.6-0.1,1.9-0.3v-3.5
			H144v-2h4.9L148.8,43L148.8,43z"/>
		<path class="st0" d="M152.2,23.1c0.5,0,1.1,0.2,1.5,0.4c0.5,0.3,0.9,0.6,1.1,1.1c0.3,0.5,0.4,1.1,0.4,1.6s-0.2,1.1-0.4,1.6
			c-0.3,0.5-0.6,0.9-1.1,1.1c-0.5,0.3-1,0.4-1.6,0.4c-0.5,0-1.1-0.2-1.6-0.4c-0.5-0.3-0.9-0.6-1.1-1.1c-0.3-0.5-0.4-1-0.4-1.6
			c0-0.5,0.2-1.1,0.4-1.6c0.3-0.5,0.7-0.9,1.1-1.1C151.2,23.2,151.6,23.1,152.2,23.1 M152.2,23.6c-0.4,0-0.9,0.1-1.3,0.4
			s-0.7,0.5-1,1c-0.3,0.4-0.4,0.9-0.4,1.3s0.1,0.9,0.4,1.3c0.3,0.4,0.5,0.7,1,1s0.9,0.4,1.3,0.4c0.4,0,0.9-0.1,1.3-0.4
			c0.4-0.3,0.7-0.5,1-1s0.4-0.9,0.4-1.3s-0.1-0.9-0.4-1.3c-0.3-0.4-0.5-0.7-1-1C153,23.7,152.6,23.6,152.2,23.6 M150.8,27.9v-3.3
			h1.1c0.4,0,0.7,0,0.9,0.1c0.2,0.1,0.4,0.2,0.4,0.4c0.1,0.2,0.2,0.4,0.2,0.5c0,0.3-0.1,0.4-0.3,0.6c-0.2,0.2-0.4,0.3-0.7,0.3
			c0.1,0.1,0.2,0.1,0.3,0.2c0.2,0.2,0.3,0.4,0.5,0.7l0.4,0.6h-0.6l-0.3-0.5c-0.3-0.4-0.4-0.7-0.5-0.8c-0.1-0.1-0.3-0.1-0.4-0.1h-0.4
			v1.4C151.5,27.9,150.8,27.9,150.8,27.9z M151.4,26h0.6c0.4,0,0.5-0.1,0.6-0.2c0.1-0.1,0.2-0.2,0.2-0.4c0-0.1,0-0.2-0.1-0.3
			c-0.1-0.1-0.1-0.2-0.3-0.2c-0.1,0-0.3-0.1-0.5-0.1h-0.6L151.4,26L151.4,26z"/>
	</g>
	<g>
		<path class="st1" d="M25,4c1.8,4.8,3.8,9.4,5.5,14.3h-5.6c-0.9-2.9-1.9-5.6-2.8-8.4c-1,2.8-2,5.5-2.9,8.4h-5.6
			C15.4,13.4,17.1,8.6,19,4H25z"/>
		<path class="st1" d="M53,4c1.8,4.8,3.8,9.4,5.5,14.3h-5.6c-0.9-2.9-2-5.6-2.9-8.4c-1,2.8-2,5.5-2.9,8.4h-5.6
			c1.7-4.8,3.5-9.6,5.4-14.3H53z"/>
		<polygon class="st1" points="1.3,4 1.3,8.2 5.3,8.2 5.3,18.3 11,18.3 11,8.2 11.2,8.2 11.2,8.2 15,8.2 15,4 		"/>
		<polygon class="st1" points="29.3,4 29.3,8.2 33.3,8.2 33.3,18.3 39,18.3 39,8.2 39.2,8.2 39.2,8.2 43,8.2 43,4 		"/>
		<path class="st0" d="M67.9,4.8c0.9-0.1,2.4-0.3,3.8-0.3c2,0,3.4,0.3,4.3,1.1c0.8,0.6,1.2,1.6,1.2,2.7c0,1.8-1.2,3-2.5,3.4v0.1
			c1,0.4,1.6,1.3,1.9,2.6c0.4,1.7,0.8,3.3,1.1,3.8h-2.6c-0.2-0.4-0.5-1.5-0.9-3.2c-0.4-1.8-1.1-2.3-2.5-2.4h-1.3v5.6h-2.5V4.8z
			 M70.4,10.8h1.5c1.7,0,2.8-0.9,2.8-2.2c0-1.5-1.1-2.2-2.7-2.2c-0.8,0-1.3,0.1-1.6,0.1V10.8z"/>
		<polygon class="st0" points="87.9,12.2 82.6,12.2 82.6,16.2 88.5,16.2 88.5,18.2 80.1,18.2 80.1,4.6 88.2,4.6 88.2,6.7 82.6,6.7 
			82.6,10.2 87.9,10.2 		"/>
		<path class="st0" d="M94,14.4l-1.2,3.8h-2.6l4.4-13.6h3.2l4.5,13.6h-2.7l-1.2-3.8H94z M97.9,12.5l-1.1-3.3
			c-0.3-0.8-0.5-1.8-0.7-2.5h0c-0.2,0.8-0.4,1.7-0.7,2.5l-1.1,3.3H97.9z"/>
		<polygon class="st0" points="104.8,4.6 107.3,4.6 107.3,16.1 113,16.1 113,18.2 104.8,18.2 		"/>
		<polygon class="st0" points="116.1,6.7 112.1,6.7 112.1,4.6 122.6,4.6 122.6,6.7 118.6,6.7 118.6,18.2 116.1,18.2 		"/>
		<path class="st0" d="M128.2,18.2v-5.7l-4.4-7.9h2.9l1.7,3.5c0.5,1,0.8,1.8,1.2,2.7h0c0.3-0.9,0.7-1.7,1.2-2.7l1.7-3.5h2.9
			l-4.6,7.9v5.7H128.2z"/>
		<path class="st0" d="M144.9,14.4l-1.2,3.8h-2.6l4.4-13.6h3.2l4.5,13.6h-2.7l-1.3-3.8H144.9z M148.9,12.5l-1.1-3.3
			c-0.3-0.8-0.5-1.8-0.7-2.5h0c-0.2,0.8-0.4,1.7-0.7,2.5l-1.1,3.3H148.9z"/>
		<path class="st0" d="M155.7,18.2V4.6h2.9l3.6,5.8c0.9,1.5,1.7,3.1,2.4,4.6h0c-0.2-1.8-0.2-3.6-0.2-5.6V4.6h2.3v13.6h-2.6l-3.6-6
			c-0.9-1.5-1.8-3.2-2.5-4.7l-0.1,0c0.1,1.8,0.1,3.5,0.1,5.8v4.9H155.7z"/>
		<path class="st0" d="M170.1,4.8c1.1-0.2,2.5-0.3,4-0.3c2.6,0,4.4,0.5,5.6,1.6c1.3,1.1,2.2,2.7,2.2,5c0,2.4-0.8,4.2-2.2,5.4
			c-1.4,1.2-3.6,1.9-6.3,1.9c-1.5,0-2.6-0.1-3.4-0.2V4.8z M172.6,16.3c0.4,0.1,0.9,0.1,1.4,0.1c3.3,0,5.2-1.7,5.2-5.2
			c0-3-1.7-4.7-4.9-4.7c-0.8,0-1.4,0.1-1.7,0.1V16.3z"/>
		<rect x="189.4" y="4.6" class="st0" width="2.5" height="13.6"/>
		<path class="st0" d="M195.3,18.2V4.6h2.9l3.6,5.8c0.9,1.5,1.7,3.1,2.4,4.6h0c-0.2-1.8-0.2-3.6-0.2-5.6V4.6h2.4v13.6h-2.6l-3.6-6
			c-0.9-1.5-1.8-3.2-2.5-4.7l-0.1,0c0.1,1.8,0.1,3.5,0.1,5.8v4.9H195.3z"/>
		<polygon class="st0" points="209.7,4.6 217.7,4.6 217.7,6.7 212.3,6.7 212.3,10.4 217.4,10.4 217.4,12.4 212.3,12.4 212.3,18.2 
			209.7,18.2 		"/>
		<path class="st0" d="M220.7,4.8c0.9-0.1,2.4-0.3,3.8-0.3c2,0,3.4,0.3,4.3,1.1c0.8,0.6,1.2,1.6,1.2,2.7c0,1.8-1.2,3-2.5,3.4v0.1
			c1,0.4,1.6,1.3,1.9,2.6c0.4,1.7,0.8,3.3,1.1,3.8h-2.6c-0.2-0.4-0.5-1.5-0.9-3.2c-0.4-1.8-1-2.3-2.5-2.4h-1.3v5.6h-2.5V4.8z
			 M223.2,10.8h1.5c1.7,0,2.8-0.9,2.8-2.2c0-1.5-1.1-2.2-2.7-2.2c-0.8,0-1.3,0.1-1.6,0.1V10.8z"/>
		<path class="st0" d="M235.8,14.4l-1.2,3.8H232l4.4-13.6h3.2l4.5,13.6h-2.7l-1.3-3.8H235.8z M239.8,12.5l-1.1-3.3
			c-0.3-0.8-0.5-1.8-0.7-2.5h0c-0.2,0.8-0.4,1.7-0.7,2.5l-1.1,3.3H239.8z"/>
		<path class="st0" d="M246.5,15.5c0.8,0.5,2.1,0.9,3.4,0.9c1.6,0,2.5-0.7,2.5-1.8c0-1-0.7-1.6-2.5-2.3c-2.3-0.8-3.7-2-3.7-3.9
			c0-2.2,1.9-3.9,4.9-3.9c1.5,0,2.6,0.3,3.3,0.7l-0.6,2c-0.5-0.3-1.5-0.6-2.8-0.6c-1.6,0-2.3,0.8-2.3,1.6c0,1,0.8,1.5,2.7,2.2
			c2.4,0.9,3.6,2.1,3.6,4c0,2.2-1.7,4.1-5.3,4.1c-1.5,0-3-0.4-3.7-0.9L246.5,15.5z"/>
		<polygon class="st0" points="260.4,6.7 256.5,6.7 256.5,4.6 267,4.6 267,6.7 263,6.7 263,18.2 260.4,18.2 		"/>
		<path class="st0" d="M269.1,4.8c0.9-0.1,2.4-0.3,3.8-0.3c2,0,3.4,0.3,4.3,1.1c0.8,0.6,1.2,1.6,1.2,2.7c0,1.8-1.2,3-2.5,3.4v0.1
			c1,0.4,1.6,1.3,1.9,2.6c0.4,1.7,0.8,3.3,1.1,3.8h-2.6c-0.2-0.4-0.5-1.5-0.9-3.2c-0.4-1.8-1-2.3-2.5-2.4h-1.3v5.6h-2.5V4.8z
			 M271.6,10.8h1.5c1.7,0,2.8-0.9,2.8-2.2c0-1.5-1.1-2.2-2.7-2.2c-0.8,0-1.3,0.1-1.6,0.1V10.8z"/>
		<path class="st0" d="M283.7,4.6v7.9c0,2.7,1.1,3.9,2.8,3.9c1.8,0,2.9-1.2,2.9-3.9V4.6h2.5v7.8c0,4.2-2.2,6-5.5,6
			c-3.2,0-5.3-1.8-5.3-6V4.6H283.7z"/>
		<path class="st0" d="M305.3,17.8c-0.6,0.3-1.9,0.6-3.6,0.6c-4.4,0-7.1-2.7-7.1-6.8c0-4.5,3.2-7.2,7.4-7.2c1.7,0,2.9,0.3,3.4,0.6
			l-0.6,2c-0.7-0.3-1.6-0.5-2.7-0.5c-2.8,0-4.8,1.7-4.8,5c0,3,1.8,4.9,4.8,4.9c1,0,2.1-0.2,2.8-0.5L305.3,17.8z"/>
		<polygon class="st0" points="311,6.7 307.1,6.7 307.1,4.6 317.5,4.6 317.5,6.7 313.6,6.7 313.6,18.2 311,18.2 		"/>
		<path class="st0" d="M322.2,4.6v7.9c0,2.7,1.1,3.9,2.8,3.9c1.8,0,2.9-1.2,2.9-3.9V4.6h2.5v7.8c0,4.2-2.2,6-5.5,6
			c-3.2,0-5.3-1.8-5.3-6V4.6H322.2z"/>
		<path class="st0" d="M333.9,4.8c0.9-0.1,2.4-0.3,3.8-0.3c2,0,3.3,0.3,4.3,1.1c0.8,0.6,1.2,1.6,1.2,2.7c0,1.8-1.2,3-2.5,3.4v0.1
			c1,0.4,1.6,1.3,1.9,2.6c0.4,1.7,0.8,3.3,1.1,3.8h-2.6c-0.2-0.4-0.5-1.5-0.9-3.2c-0.4-1.8-1.1-2.3-2.5-2.4h-1.3v5.6h-2.5V4.8z
			 M336.4,10.8h1.5c1.7,0,2.8-0.9,2.8-2.2c0-1.5-1.1-2.2-2.7-2.2c-0.8,0-1.3,0.1-1.6,0.1V10.8z"/>
		<polygon class="st0" points="353.8,12.2 348.6,12.2 348.6,16.2 354.4,16.2 354.4,18.2 346.1,18.2 346.1,4.6 354.1,4.6 354.1,6.7 
			348.6,6.7 348.6,10.2 353.8,10.2 		"/>
		<polygon class="st0" points="361.9,4.6 364.4,4.6 364.4,16.1 370.1,16.1 370.1,18.2 361.9,18.2 		"/>
		<polygon class="st0" points="374.8,6.7 370.9,6.7 370.9,4.6 381.3,4.6 381.3,6.7 377.4,6.7 377.4,18.2 374.8,18.2 		"/>
		<path class="st0" d="M383.3,4.8c1.1-0.2,2.5-0.3,4-0.3c2.6,0,4.4,0.5,5.6,1.6c1.3,1.1,2.2,2.7,2.2,5c0,2.4-0.9,4.2-2.2,5.4
			c-1.4,1.2-3.6,1.9-6.3,1.9c-1.5,0-2.6-0.1-3.4-0.2V4.8z M385.8,16.3c0.4,0.1,0.9,0.1,1.4,0.1c3.3,0,5.2-1.7,5.2-5.2
			c0-3-1.7-4.7-4.9-4.7c-0.8,0-1.4,0.1-1.7,0.1V16.3z"/>
		<path class="st0" d="M398.8,16.8c0-0.7-0.6-1.3-1.3-1.3c-0.7,0-1.3,0.6-1.3,1.3c0,0.7,0.6,1.3,1.3,1.3
			C398.2,18.1,398.8,17.5,398.8,16.8"/>
	</g>
</g>
</svg>
